# xmcd CD database file
#
# Track frame offsets:
#	150
#	12286
#	30272
#	55675
#	81107
#	101744
#	124843
#	149879
#	168414
#	177053
#	201512
#
# Disc length: 2981 seconds
#
# Revision: 0
# Processed by: cddbd v1.5.2PL0 Copyright (c) Steve Scherf et al.
# Submitted via: CDex 1.51
#
DISCID=930ba30b
DTITLE=Celtic Classics - Volume 1
DYEAR=1900
DGENRE=New Age
TTITLE0=Heirloom - The dDrowsy Banshee Set
TTITLE1=Aoife Clancy - Lovers
TTITLE2=Clandestine - Back To Chico
TTITLE3=Glengary Bhoys - Over The Mountain
TTITLE4=Chbarlie Zahm - Leezy Lindsay
TTITLE5=Maggie Drennon - North Country Fair
TTITLE6=The Irish Lads - The Town I loved So Well
TTITLE7=Raglan Rad - Ghost In My Home
TTITLE8=Seamus Kennedy - The Parting Glass
TTITLE9=Blackwater - John O Dreams
TTITLE10=John Whelan - From The Heart
EXTD=
EXTT0=
EXTT1=
EXTT2=
EXTT3=
EXTT4=
EXTT5=
EXTT6=
EXTT7=
EXTT8=
EXTT9=
EXTT10=
PLAYORDER=
